<svg width="48" height="48" viewBox="0 0 48 48" fill="none" xmlns="http://www.w3.org/2000/svg">
<path d="M32 14.16C32 17.7 30.32 20.66 28 21.8V42H24V21.8C21.68 20.66 20 17.7 20 14.16C20.02 9.66 22.7 6 26 6C29.32 6 32 9.66 32 14.16ZM34 6V42H38V26H42V14C42 10.48 39.52 6 34 6ZM16.56 6C15.76 6 15.12 6.64 15.12 7.44V14H13.44V7.44C13.44 6.64 12.8 6 12 6C11.2 6 10.56 6.64 10.56 7.44V14H8.88V7.44C8.88 6.64 8.24 6 7.44 6C6.64 6 6 6.64 6 7.44V18C6 20.2 7.8 22 10 22V42H14V22C16.2 22 18 20.2 18 18V7.44C18 6.64 17.36 6 16.56 6Z" fill="#053225"/>
</svg>
